# This file uses centimeters as units for non-parametric coordinates.

mtllib mtltest3.mtl
g default
v -6.154531 -20.882913 -16.189223
v 1.988111 -25.556903 -21.404711
v -4.527896 -13.649321 -24.650639
v -1.639386 -11.574384 -31.157957
v 2.680705 -21.516189 -51.709681
v 6.407954 -20.840378 -50.415403
v 2.731549 -31.548033 -46.617939
v 6.458799 -30.872222 -45.323661
vt 0.375000 0.000000
vt 0.625000 0.000000
vt 0.625000 0.250000
vt 0.375000 0.250000
vt 0.625000 0.500000
vt 0.375000 0.500000
vt 0.625000 0.750000
vt 0.375000 0.750000
vt 0.625000 1.000000
vt 0.375000 1.000000
vt 0.875000 0.000000
vt 0.875000 0.250000
vt 0.125000 0.000000
vt 0.125000 0.250000
vn 0.678545 0.514283 0.524490
vn 0.678545 0.514283 0.524490
vn 0.678545 0.514283 0.524490
vn 0.678545 0.514283 0.524490
vn -0.619027 0.648075 -0.443626
vn -0.619027 0.648075 -0.443626
vn -0.619027 0.648075 -0.443626
vn -0.619027 0.648075 -0.443626
vn 0.364719 -0.419951 -0.831036
vn 0.364719 -0.419951 -0.831036
vn 0.364719 -0.419951 -0.831036
vn 0.364719 -0.419951 -0.831036
vn -0.246405 -0.944522 0.217170
vn -0.246405 -0.944522 0.217170
vn -0.246405 -0.944522 0.217170
vn -0.246405 -0.944522 0.217170
vn 0.947260 0.260486 0.186667
vn 0.947260 0.260486 0.186667
vn 0.947260 0.260486 0.186667
vn 0.947260 0.260486 0.186667
vn -0.966068 -0.099072 -0.238530
vn -0.966068 -0.099072 -0.238530
vn -0.966068 -0.099072 -0.238530
vn -0.966068 -0.099072 -0.238530
s off
g obj_mtl_test:pCube1
usemtl obj_mtl_test:lambert4SG
f 1/1/1 2/2/2 4/3/3 3/4/4
usemtl lambert6SG
f 3/4/5 4/3/6 6/5/7 5/6/8
usemtl blinn1SG
f 5/6/9 6/5/10 8/7/11 7/8/12
usemtl obj_mtl_test:initialShadingGroup
f 7/8/13 8/7/14 2/9/15 1/10/16
usemtl obj_mtl_test:lambert3SG
f 2/2/17 8/11/18 6/12/19 4/3/20
usemtl lambert7SG
f 7/13/21 1/1/22 3/4/23 5/14/24
