# This file uses centimeters as units for non-parametric coordinates.

mtllib obj-mtl-test.mtl
g default
v -6.154531 5.417279 15.112636
v 1.988111 0.743289 9.897148
v -4.527896 12.650871 6.651220
v -1.639386 14.725808 0.143902
v 2.680705 4.784003 -20.407822
v 6.407954 5.459814 -19.113544
v 2.731549 -5.247841 -15.316080
v 6.458799 -4.572030 -14.021802
vt 0.375000 0.000000
vt 0.625000 0.000000
vt 0.375000 0.250000
vt 0.625000 0.250000
vt 0.375000 0.500000
vt 0.625000 0.500000
vt 0.375000 0.750000
vt 0.625000 0.750000
vt 0.375000 1.000000
vt 0.625000 1.000000
vt 0.875000 0.000000
vt 0.875000 0.250000
vt 0.125000 0.000000
vt 0.125000 0.250000
vn 0.678545 0.514283 0.524490
vn 0.678545 0.514283 0.524490
vn 0.678545 0.514283 0.524490
vn 0.678545 0.514283 0.524490
vn -0.619027 0.648075 -0.443626
vn -0.619027 0.648075 -0.443626
vn -0.619027 0.648075 -0.443626
vn -0.619027 0.648075 -0.443626
vn 0.364719 -0.419951 -0.831036
vn 0.364719 -0.419951 -0.831036
vn 0.364719 -0.419951 -0.831036
vn 0.364719 -0.419951 -0.831036
vn -0.246405 -0.944522 0.217170
vn -0.246405 -0.944522 0.217170
vn -0.246405 -0.944522 0.217170
vn -0.246405 -0.944522 0.217170
vn 0.947260 0.260486 0.186667
vn 0.947260 0.260486 0.186667
vn 0.947260 0.260486 0.186667
vn 0.947260 0.260486 0.186667
vn -0.966068 -0.099072 -0.238530
vn -0.966068 -0.099072 -0.238530
vn -0.966068 -0.099072 -0.238530
vn -0.966068 -0.099072 -0.238530
s off
g pCube1
usemtl lambert4SG
f 1/1/1 2/2/2 4/4/3 3/3/4
usemtl initialShadingGroup
f 3/3/5 4/4/6 6/6/7 5/5/8
f 5/5/9 6/6/10 8/8/11 7/7/12
f 7/7/13 8/8/14 2/10/15 1/9/16
usemtl lambert3SG
f 2/2/17 8/11/18 6/12/19 4/4/20
usemtl initialShadingGroup
f 7/13/21 1/1/22 3/3/23 5/14/24
