# This file uses centimeters as units for non-parametric coordinates.

mtllib obj-material-test2.mtl
g default
v 6.983140 0.000000 -8.651851
v 5.894214 0.000000 -10.788989
v 4.198172 0.000000 -12.485031
v 2.061034 0.000000 -13.573957
v -0.308001 0.000000 -13.949175
v -2.677036 0.000000 -13.573956
v -4.814173 0.000000 -12.485030
v -6.510214 0.000000 -10.788988
v -7.599140 0.000000 -8.651850
v -7.974358 0.000000 -6.282816
v -7.599140 0.000000 -3.913782
v -6.510214 0.000000 -1.776645
v -4.814172 0.000000 -0.080604
v -2.677035 0.000000 1.008322
v -0.308001 0.000000 1.383539
v 2.061033 0.000000 1.008321
v 4.198169 0.000000 -0.080604
v 5.894210 0.000000 -1.776645
v 6.983136 0.000000 -3.913782
v 7.358354 0.000000 -6.282816
v -0.308001 13.875396 -6.282816
vt 0.737764 0.172746
vt 0.702254 0.103054
vt 0.646946 0.047746
vt 0.577254 0.012236
vt 0.500000 -0.000000
vt 0.422746 0.012236
vt 0.353054 0.047746
vt 0.297746 0.103054
vt 0.262236 0.172746
vt 0.250000 0.250000
vt 0.262236 0.327254
vt 0.297746 0.396946
vt 0.353054 0.452254
vt 0.422746 0.487764
vt 0.500000 0.500000
vt 0.577254 0.487764
vt 0.646946 0.452254
vt 0.702254 0.396946
vt 0.737764 0.327254
vt 0.750000 0.250000
vt 0.250000 0.500000
vt 0.275000 0.500000
vt 0.300000 0.500000
vt 0.325000 0.500000
vt 0.350000 0.500000
vt 0.375000 0.500000
vt 0.400000 0.500000
vt 0.425000 0.500000
vt 0.450000 0.500000
vt 0.475000 0.500000
vt 0.500000 0.500000
vt 0.525000 0.500000
vt 0.550000 0.500000
vt 0.575000 0.500000
vt 0.600000 0.500000
vt 0.625000 0.500000
vt 0.650000 0.500000
vt 0.675000 0.500000
vt 0.700000 0.500000
vt 0.725000 0.500000
vt 0.750000 0.500000
vt 0.500000 1.000000
vn 0.000000 -1.000000 -0.000000
vn 0.000000 -1.000000 -0.000000
vn 0.000000 -1.000000 -0.000000
vn 0.000000 -1.000000 -0.000000
vn 0.000000 -1.000000 -0.000000
vn 0.000000 -1.000000 -0.000000
vn 0.000000 -1.000000 -0.000000
vn 0.000000 -1.000000 -0.000000
vn 0.000000 -1.000000 -0.000000
vn 0.000000 -1.000000 -0.000000
vn 0.000000 -1.000000 -0.000000
vn 0.000000 -1.000000 -0.000000
vn 0.000000 -1.000000 -0.000000
vn 0.000000 -1.000000 -0.000000
vn 0.000000 -1.000000 -0.000000
vn 0.000000 -1.000000 -0.000000
vn 0.000000 -1.000000 -0.000000
vn 0.000000 -1.000000 -0.000000
vn 0.000000 -1.000000 -0.000000
vn 0.000000 -1.000000 -0.000000
vn 0.832446 0.483608 -0.270477
vn 0.708120 0.483608 -0.514480
vn -0.000000 1.000000 -0.000000
vn 0.514479 0.483608 -0.708120
vn 0.270478 0.483608 -0.832446
vn 0.000000 0.483608 -0.875285
vn -0.270478 0.483608 -0.832445
vn -0.514480 0.483608 -0.708120
vn -0.708121 0.483608 -0.514479
vn -0.832446 0.483608 -0.270478
vn -0.875285 0.483608 0.000000
vn -0.832446 0.483608 0.270478
vn -0.708120 0.483608 0.514480
vn -0.514480 0.483608 0.708121
vn -0.270478 0.483608 0.832446
vn 0.000000 0.483608 0.875285
vn 0.270478 0.483608 0.832446
vn 0.514480 0.483608 0.708120
vn 0.708120 0.483608 0.514480
vn 0.832446 0.483608 0.270478
vn 0.875285 0.483608 0.000001
s off
g pCone1
usemtl lambert2SG
f 1/1/1 20/20/2 19/19/3 18/18/4 17/17/5 16/16/6 15/15/7 14/14/8 13/13/9 12/12/10 11/11/11 10/10/12 9/9/13 8/8/14 7/7/15 6/6/16 5/5/17 4/4/18 3/3/19 2/2/20
s 1
f 1/21/21 2/22/22 21/42/23
f 2/22/22 3/23/24 21/42/23
f 3/23/24 4/24/25 21/42/23
f 4/24/25 5/25/26 21/42/23
f 5/25/26 6/26/27 21/42/23
f 6/26/27 7/27/28 21/42/23
f 7/27/28 8/28/29 21/42/23
f 8/28/29 9/29/30 21/42/23
f 9/29/30 10/30/31 21/42/23
f 10/30/31 11/31/32 21/42/23
f 11/31/32 12/32/33 21/42/23
f 12/32/33 13/33/34 21/42/23
f 13/33/34 14/34/35 21/42/23
f 14/34/35 15/35/36 21/42/23
f 15/35/36 16/36/37 21/42/23
f 16/36/37 17/37/38 21/42/23
f 17/37/38 18/38/39 21/42/23
f 18/38/39 19/39/40 21/42/23
f 19/39/40 20/40/41 21/42/23
f 20/40/41 1/41/21 21/42/23
g default
v 1.305512 0.000000 6.497052
v 0.132384 0.000000 4.194658
v -1.694807 0.000000 2.367468
v -3.997201 0.000000 1.194340
v -6.549424 0.000000 0.790108
v -9.101647 0.000000 1.194341
v -11.404040 0.000000 2.367469
v -13.231229 0.000000 4.194659
v -14.404357 0.000000 6.497053
v -14.808589 0.000000 9.049275
v -14.404357 0.000000 11.601497
v -13.231229 0.000000 13.903890
v -11.404039 0.000000 15.731079
v -9.101646 0.000000 16.904207
v -6.549424 0.000000 17.308439
v -3.997202 0.000000 16.904206
v -1.694810 0.000000 15.731079
v 0.132379 0.000000 13.903890
v 1.305507 0.000000 11.601497
v 1.709739 0.000000 9.049275
v 1.305512 9.642294 6.497052
v 0.132384 9.642294 4.194658
v -1.694807 9.642294 2.367468
v -3.997201 9.642294 1.194340
v -6.549424 9.642294 0.790108
v -9.101647 9.642294 1.194341
v -11.404040 9.642294 2.367469
v -13.231229 9.642294 4.194659
v -14.404357 9.642294 6.497053
v -14.808589 9.642294 9.049275
v -14.404357 9.642294 11.601497
v -13.231229 9.642294 13.903890
v -11.404039 9.642294 15.731079
v -9.101646 9.642294 16.904207
v -6.549424 9.642294 17.308439
v -3.997202 9.642294 16.904206
v -1.694810 9.642294 15.731079
v 0.132379 9.642294 13.903890
v 1.305507 9.642294 11.601497
v 1.709739 9.642294 9.049275
v -6.549424 0.000000 9.049275
v -6.549424 9.642294 9.049275
vt 0.648603 0.107966
vt 0.626409 0.064408
vt 0.591842 0.029841
vt 0.548284 0.007647
vt 0.500000 -0.000000
vt 0.451716 0.007647
vt 0.408159 0.029841
vt 0.373591 0.064409
vt 0.351397 0.107966
vt 0.343750 0.156250
vt 0.351397 0.204534
vt 0.373591 0.248091
vt 0.408159 0.282659
vt 0.451716 0.304853
vt 0.500000 0.312500
vt 0.548284 0.304853
vt 0.591841 0.282659
vt 0.626409 0.248091
vt 0.648603 0.204534
vt 0.656250 0.156250
vt 0.375000 0.312500
vt 0.387500 0.312500
vt 0.400000 0.312500
vt 0.412500 0.312500
vt 0.425000 0.312500
vt 0.437500 0.312500
vt 0.450000 0.312500
vt 0.462500 0.312500
vt 0.475000 0.312500
vt 0.487500 0.312500
vt 0.500000 0.312500
vt 0.512500 0.312500
vt 0.525000 0.312500
vt 0.537500 0.312500
vt 0.550000 0.312500
vt 0.562500 0.312500
vt 0.575000 0.312500
vt 0.587500 0.312500
vt 0.600000 0.312500
vt 0.612500 0.312500
vt 0.625000 0.312500
vt 0.375000 0.688440
vt 0.387500 0.688440
vt 0.400000 0.688440
vt 0.412500 0.688440
vt 0.425000 0.688440
vt 0.437500 0.688440
vt 0.450000 0.688440
vt 0.462500 0.688440
vt 0.475000 0.688440
vt 0.487500 0.688440
vt 0.500000 0.688440
vt 0.512500 0.688440
vt 0.525000 0.688440
vt 0.537500 0.688440
vt 0.550000 0.688440
vt 0.562500 0.688440
vt 0.575000 0.688440
vt 0.587500 0.688440
vt 0.600000 0.688440
vt 0.612500 0.688440
vt 0.625000 0.688440
vt 0.648603 0.795466
vt 0.626409 0.751908
vt 0.591842 0.717341
vt 0.548284 0.695147
vt 0.500000 0.687500
vt 0.451716 0.695147
vt 0.408159 0.717341
vt 0.373591 0.751909
vt 0.351397 0.795466
vt 0.343750 0.843750
vt 0.351397 0.892034
vt 0.373591 0.935591
vt 0.408159 0.970159
vt 0.451716 0.992353
vt 0.500000 1.000000
vt 0.548284 0.992353
vt 0.591841 0.970159
vt 0.626409 0.935591
vt 0.648603 0.892034
vt 0.656250 0.843750
vt 0.500000 0.150000
vt 0.500000 0.837500
vn 0.951057 0.000000 -0.309016
vn 0.809017 0.000000 -0.587785
vn 0.809017 0.000000 -0.587785
vn 0.951057 0.000000 -0.309016
vn 0.587785 0.000000 -0.809017
vn 0.587785 0.000000 -0.809017
vn 0.309017 0.000000 -0.951057
vn 0.309017 0.000000 -0.951057
vn 0.000000 0.000000 -1.000000
vn 0.000000 0.000000 -1.000000
vn -0.309017 0.000000 -0.951056
vn -0.309017 0.000000 -0.951056
vn -0.587786 0.000000 -0.809017
vn -0.587786 0.000000 -0.809017
vn -0.809017 0.000000 -0.587785
vn -0.809017 0.000000 -0.587785
vn -0.951057 0.000000 -0.309017
vn -0.951057 0.000000 -0.309017
vn -1.000000 0.000000 0.000000
vn -1.000000 0.000000 0.000000
vn -0.951057 0.000000 0.309017
vn -0.951057 0.000000 0.309017
vn -0.809017 0.000000 0.587785
vn -0.809017 0.000000 0.587785
vn -0.587785 0.000000 0.809017
vn -0.587785 0.000000 0.809017
vn -0.309017 0.000000 0.951057
vn -0.309017 0.000000 0.951057
vn 0.000000 0.000000 1.000000
vn 0.000000 0.000000 1.000000
vn 0.309017 0.000000 0.951057
vn 0.309017 0.000000 0.951057
vn 0.587785 0.000000 0.809017
vn 0.587785 0.000000 0.809017
vn 0.809017 0.000000 0.587785
vn 0.809017 0.000000 0.587785
vn 0.951057 0.000000 0.309017
vn 0.951057 0.000000 0.309017
vn 1.000000 0.000000 0.000001
vn 1.000000 0.000000 0.000001
vn 0.000000 -1.000000 0.000000
vn 0.000000 -1.000000 0.000000
vn 0.000000 -1.000000 0.000000
vn 0.000000 -1.000000 -0.000000
vn 0.000000 -1.000000 -0.000000
vn 0.000000 -1.000000 0.000000
vn 0.000000 -1.000000 0.000000
vn 0.000000 -1.000000 0.000000
vn 0.000000 -1.000000 0.000000
vn 0.000000 -1.000000 0.000000
vn 0.000000 -1.000000 0.000000
vn 0.000000 -1.000000 0.000000
vn 0.000000 -1.000000 0.000000
vn 0.000000 -1.000000 0.000000
vn 0.000000 -1.000000 0.000000
vn 0.000000 -1.000000 0.000000
vn 0.000000 -1.000000 0.000000
vn 0.000000 -1.000000 0.000000
vn 0.000000 -1.000000 0.000000
vn 0.000000 -1.000000 0.000000
vn 0.000000 -1.000000 0.000000
vn 0.000000 1.000000 0.000000
vn 0.000000 1.000000 0.000000
vn 0.000000 1.000000 0.000000
vn 0.000000 1.000000 0.000000
vn 0.000000 1.000000 0.000000
vn 0.000000 1.000000 0.000000
vn 0.000000 1.000000 0.000000
vn 0.000000 1.000000 -0.000000
vn 0.000000 1.000000 -0.000000
vn 0.000000 1.000000 0.000000
vn 0.000000 1.000000 0.000000
vn 0.000000 1.000000 0.000000
vn 0.000000 1.000000 0.000000
vn 0.000000 1.000000 0.000000
vn 0.000000 1.000000 0.000000
vn 0.000000 1.000000 0.000000
vn 0.000000 1.000000 -0.000000
vn 0.000000 1.000000 -0.000000
vn 0.000000 1.000000 0.000000
vn 0.000000 1.000000 0.000000
vn 0.000000 1.000000 0.000000
s 1
g pCylinder1
usemtl lambert4SG
f 22/63/42 23/64/43 43/85/44 42/84/45
f 23/64/43 24/65/46 44/86/47 43/85/44
f 24/65/46 25/66/48 45/87/49 44/86/47
f 25/66/48 26/67/50 46/88/51 45/87/49
f 26/67/50 27/68/52 47/89/53 46/88/51
f 27/68/52 28/69/54 48/90/55 47/89/53
f 28/69/54 29/70/56 49/91/57 48/90/55
f 29/70/56 30/71/58 50/92/59 49/91/57
f 30/71/58 31/72/60 51/93/61 50/92/59
f 31/72/60 32/73/62 52/94/63 51/93/61
f 32/73/62 33/74/64 53/95/65 52/94/63
f 33/74/64 34/75/66 54/96/67 53/95/65
f 34/75/66 35/76/68 55/97/69 54/96/67
f 35/76/68 36/77/70 56/98/71 55/97/69
f 36/77/70 37/78/72 57/99/73 56/98/71
f 37/78/72 38/79/74 58/100/75 57/99/73
f 38/79/74 39/80/76 59/101/77 58/100/75
f 39/80/76 40/81/78 60/102/79 59/101/77
f 40/81/78 41/82/80 61/103/81 60/102/79
f 41/82/80 22/83/42 42/104/45 61/103/81
s 2
f 23/44/82 22/43/83 62/125/84
f 24/45/85 23/44/82 62/125/84
f 25/46/86 24/45/85 62/125/84
f 26/47/87 25/46/86 62/125/84
f 27/48/88 26/47/87 62/125/84
f 28/49/89 27/48/88 62/125/84
f 29/50/90 28/49/89 62/125/84
f 30/51/91 29/50/90 62/125/84
f 31/52/92 30/51/91 62/125/84
f 32/53/93 31/52/92 62/125/84
f 33/54/94 32/53/93 62/125/84
f 34/55/95 33/54/94 62/125/84
f 35/56/96 34/55/95 62/125/84
f 36/57/97 35/56/96 62/125/84
f 37/58/98 36/57/97 62/125/84
f 38/59/99 37/58/98 62/125/84
f 39/60/100 38/59/99 62/125/84
f 40/61/101 39/60/100 62/125/84
f 41/62/102 40/61/101 62/125/84
f 22/43/83 41/62/102 62/125/84
s 3
f 42/123/103 43/122/104 63/126/105
f 43/122/104 44/121/106 63/126/105
f 44/121/106 45/120/107 63/126/105
f 45/120/107 46/119/108 63/126/105
f 46/119/108 47/118/109 63/126/105
f 47/118/109 48/117/110 63/126/105
f 48/117/110 49/116/111 63/126/105
f 49/116/111 50/115/112 63/126/105
f 50/115/112 51/114/113 63/126/105
f 51/114/113 52/113/114 63/126/105
f 52/113/114 53/112/115 63/126/105
f 53/112/115 54/111/116 63/126/105
f 54/111/116 55/110/117 63/126/105
f 55/110/117 56/109/118 63/126/105
f 56/109/118 57/108/119 63/126/105
f 57/108/119 58/107/120 63/126/105
f 58/107/120 59/106/121 63/126/105
f 59/106/121 60/105/122 63/126/105
f 60/105/122 61/124/123 63/126/105
f 61/124/123 42/123/103 63/126/105
g default
v 11.049759 -0.000000 1.454767
v 19.538733 -0.000000 1.454767
v 11.049759 9.921050 1.454767
v 19.538733 9.921050 1.454767
v 11.049759 9.921050 -8.578811
v 19.538733 9.921050 -8.578811
v 11.049759 -0.000000 -8.578811
v 19.538733 -0.000000 -8.578811
vt 0.375000 0.000000
vt 0.625000 0.000000
vt 0.375000 0.250000
vt 0.625000 0.250000
vt 0.375000 0.500000
vt 0.625000 0.500000
vt 0.375000 0.750000
vt 0.625000 0.750000
vt 0.375000 1.000000
vt 0.625000 1.000000
vt 0.875000 0.000000
vt 0.875000 0.250000
vt 0.125000 0.000000
vt 0.125000 0.250000
vn 0.000000 0.000000 1.000000
vn 0.000000 0.000000 1.000000
vn 0.000000 0.000000 1.000000
vn 0.000000 0.000000 1.000000
vn 0.000000 1.000000 0.000000
vn 0.000000 1.000000 0.000000
vn 0.000000 1.000000 0.000000
vn 0.000000 1.000000 0.000000
vn 0.000000 0.000000 -1.000000
vn 0.000000 0.000000 -1.000000
vn 0.000000 0.000000 -1.000000
vn 0.000000 0.000000 -1.000000
vn 0.000000 -1.000000 0.000000
vn 0.000000 -1.000000 0.000000
vn 0.000000 -1.000000 0.000000
vn 0.000000 -1.000000 0.000000
vn 1.000000 0.000000 0.000000
vn 1.000000 0.000000 0.000000
vn 1.000000 0.000000 0.000000
vn 1.000000 0.000000 0.000000
vn -1.000000 0.000000 0.000000
vn -1.000000 0.000000 0.000000
vn -1.000000 0.000000 0.000000
vn -1.000000 0.000000 0.000000
s off
g pCube1
usemtl lambert3SG
f 64/127/124 65/128/125 67/130/126 66/129/127
f 66/129/128 67/130/129 69/132/130 68/131/131
f 68/131/132 69/132/133 71/134/134 70/133/135
f 70/133/136 71/134/137 65/136/138 64/135/139
f 65/128/140 71/137/141 69/138/142 67/130/143
f 70/139/144 64/127/145 66/129/146 68/140/147
