<?xml version="1.0" encoding="utf-8"?>
<!-- Generator: Adobe Illustrator 19.1.0, SVG Export Plug-In . SVG Version: 6.00 Build 0)  -->
<svg version="1.1" id="Layer_1" xmlns="http://www.w3.org/2000/svg" xmlns:xlink="http://www.w3.org/1999/xlink" x="0px" y="0px"
	 viewBox="0 0 524.3 526.5" style="enable-background:new 0 0 524.3 526.5;" xml:space="preserve">
<style type="text/css">
	.st0{fill:#999999;}
</style>
<g>
	<path class="st0" d="M241.1,288.4c-2,0.5-4.1,3.6-2.8,4.6c-8.8,1.8-12.3,5.1-21.2,2.6c-10.5-2.9-19.9-4.3-30.5-8.7
		c0.2-3.7,13.8-5.2,15-10c0.9-3.3-2.5-9.5-2-13.7c0.9-8.6,6.5-15.1,8.1-23.9c1.3-7,4.8-12.7,6.4-19.4c1.1-4.4,0.6-8.7,1.7-13.1
		c1.7-6.6,7.5-26.7,16.6-24.4c6.9,1.7,5.1,20.4,4.1,26c-2,10.7,2.3,18.3,2.6,29.1c0.2,7.3-0.3,15.5-1.2,21.6
		c-1.2,8.1,1.6,9.3,3.4,16.5C242.4,280.1,240.8,283.8,241.1,288.4C240.2,288.6,241,287.7,241.1,288.4z M222.3,287.5
		c0.2,0.6,3.7,4.1,4.2,1.9C225.3,288.5,223.9,287.9,222.3,287.5C222.8,288.9,224.2,287.5,222.3,287.5z M197.4,286.1
		c0.9,0.9,2,0.7,2.9-0.4C199.4,285.9,198.5,286,197.4,286.1z M235.1,252C234.6,252.1,235.7,253.5,235.1,252
		C235.1,252,235.2,252.2,235.1,252z M220.8,294.2C220.4,293.6,220.2,294.6,220.8,294.2C220.7,294.1,220.7,294.2,220.8,294.2z"/>
	<g>
		<path class="st0" d="M235,45.7C234.9,45.7,234.9,45.7,235,45.7C235,45.7,235,45.7,235,45.7z"/>
		<path class="st0" d="M249.7,44.4C249.7,44.4,249.7,44.4,249.7,44.4C249.7,44.4,249.7,44.4,249.7,44.4z"/>
		<path class="st0" d="M262.1,0c-86.6,0-169,44-217.5,115.6c-50.6,74.9-58.8,173.6-21.1,255.8c22,47.8,58.3,88.5,103.4,115.7
			c-3.2-10.1-4.4-21.1-6.1-31.6c-1.8-11.1-5.3-23.9-0.5-34.8c4.4-9.9,23.7-29.1,34-31.4c4.4-1,8.4,0.2,12.1,2.7
			c1.9,1.3,7.5,6.2,9.1,7.8c5.1,5.2,5.9,2,2.4,9.4c-2.6,5.3-7.3,10-10,15.6c-11.2,22.4-22.2,44.4-35.7,65.6
			c7.3,4.2,14.8,8,22.4,11.4c6.4-14.9,15.1-29.5,19.3-45.3c1.6-6.1,1.5-20.6,9.2-23.7c6.6-2.6,4.8,1.6,3.7,6.3
			c-3.1,13-8.4,26.1-12.1,39c-1.9,6.6-4.4,12.9-6.5,19.5c-2.4,7.5-3.5,6.4,1.9,10.6c0.9,0.7,12.4,5,13.4,4.6
			c2.8-1.2,5.3-16.7,6.1-19.6c2.3-8.9,3.3-17.7,5.2-26.6c2-9.3,4.7-12.4,10.7-18.6c5.8-6.1,7.7-13.2,9.9-21.9
			c2.1-8.2,5.2-17.4,3-25.9c-1-3.7-0.1-4.2-3.2-6.5c-2.5-1.8-11.7-4.2-14.7-3.7c-3.1,0.5-7.9,10.3-12.4,9c-11.6-3.3,5-9.1,6.9-9.5
			c-13.7-14.4-26.6-29.4-32.7-49c-2.9-9.4-5-19.1-7.1-28.7c-2.5-11.4-7.5-21.4-11.1-32.5c-3.4-10.7-6.6-22.5-7.9-33.7
			c-1.5-12.9,2.2-25.1,4.2-37.8c3-19.6,5.1,0.4,9.5,5.4c1.5-1.1,2.3-4,0.2-3.9c-0.1-0.4-2.9-7.5-2.9-8.4c0,0.7,3.9-5.9,3.3-5
			c2-2.8,3.9-7.1,8.3-6.6c5.6,0.6-0.2,8.7,4,14.1c3.8,4.9,15.6,5.7,21.3,4.8c0.5-2.1-3-2-4-2.2c0.7-7.5,6.8-2.8,7.9-3.7
			c-1.3-2.4-1.8-4.4,1.4-4c-0.6-7.5-11.2-15.5-17.6-17.6c-3.8-1.2-10.5,1-12.4-1.1c-1.6,2.7-14.9,6.5-18,4c0,0.5-0.9,3.1-2,3.1
			c-5.5-0.4-4-15.7-1.2-18.2c4.4-4.1,15.4-0.2,20.2,1.2c6.1,1.8,26.6,15,28.4,5.2c1.7-9.4-19.7-14.3-26.6-15
			c-2.7-0.3-7.8-1.7-10.3-1.6c-2.8,0.1-10.7,4.2-11.9,4c2.8-23,8-49.7,20-69.9c3.9-6.6,8.2-13,14.5-18.3c3.6-3.1,10.6-6.9,15.2-8.6
			c5.4-2.1,7.6-1.6,9.4-5.8c4.5,2.2,3-2,7-0.2c-1.4-2.8,3.1,1.5,5.5-0.4c0.5,5,14.9,0.4,13.4,6.4c3-2.9,6.1,1.6,9.1,2
			c-3.1-4.1,7.5,0.6,9.3,0.9c4.9,0.7,11.9-1.2,12.1,4.6c1.6-2.6,2.3-2.3,5.1-1.5c-0.8-0.9-1.6-1.9-2.4-2.8c1.2,0.6,9.4,7.1,10,5.8
			c2.6-5.5-32.9-24.9-36.7-27.6c0.4-1.8,4.4-1.1,5.3-1c-0.6-1.2-1.6-2-2.9-2.5c4-1.3,11.9,5.5,15.3,7.8c4.6,3.2,8,7.9,13,10.7
			c1-2.5-9.5-10.5-10.5-11.3c-1.7-1.2-16.1-7.5-6.1-4.4c-1.2-0.4-1.6-1-1.2-1.7c8.8,2.2,19.7,11.6,26.4,17.8
			c9.3,8.6,17.8,19.1,25.3,29.4c-3.4-0.6-7.3-6.9-9.5-9.3c-2.1,1.6,4.7,3.9,2.8,5.5c-3.4-4-6.4-8.2-10-12.1c-0.9-1-8.7-9.8-8.1-5.6
			c-0.6-0.1-2.7-2.6-3.3-2.2c5.8,8.1,14.1,15.8,19.2,23.1c2.5,3.6,9.1,8.9,7.4,14.6c-4-2.1-7.8-9.3-12.2-7.2c0,0,16.3,10.4,1.8,7.6
			c1.3,2.5,4.2,3.7,4.8,6.4c0.7,2.9-0.9,4.6-1.8,8.1c-0.8,3-0.8,14-0.3,15.8c1.5,4.8,4.5,6.1,3.7,10.4c-0.5,2.5-2.8,4.2-3.7,6.3
			c-0.4,1.1,2.1,4.1,2.3,6.1c-6.9,0.3-2.3,2.2-11.1,2.9c-2.1,0.2-4-0.1-6.1,0.1c-7.7,0.5-16.6,0.7-23.8,3.7c1.7,1-0.3,2.1-1.6,2.3
			c1-3.8-5.4,6.1-4.5,8.8c3.3-2.2,3.3,4.7,3.7,4.9c4.4,1.8,8.1-0.4,12-2.6c6.4-3.6,12.2-7.3,19.6-8c9.3-0.8,18.9,1,27,5.6
			c3.9,2.3,15.4,14,3.2,14c1.6,3.3-32-5.3-36.8-6.7c-2.6-0.7-8.2-2.5-10.6-0.8c-2.3,1.6-0.2,2.2-1.5,4.1c-1.3,1.9-8.3,17-8.6,16.7
			c3.2,2.3,5.8-3.3,7.9-4.5c0.3-0.2-1,6.4-1.8,7.6c-0.3,0.5-9.5,8.7-4.4,7.4c-1.3-3.1,18.8-15.8,22.4-15.1c5.2,1.1,0,0.5,1.4,4.2
			c1.3,3.1-0.8,7.8,2.1,11.5c2.5,3.2,5.8,3.9,9.6,5c0.3,3.2-4.6,0.6-6.1,2.2c2.8,1.9,6.3,0.7,3.8,4.9c-0.3,0.5-9,2.6-5.9,4.9
			c1.6,1.3,15.3,1.7,17.9,1.9c5.9,0.6,12.4-2.4,17.4-2c5.4,0.4,11.1,7.6,10.7,14.6c-0.4,5.9-7.1,17.5-10.7,21.7
			c-1.1,1.3-2.4,2.8-3.5,4.9c-0.8,1.5-2-1.1-2.5-0.2c-1,1.9,0.1,4.5-0.7,5.8c-0.6,0.8-0.2,3.4-0.6,4.6c-0.5,1.2-2.3-1-2.4-1
			c-1.8,3.5-3.9,7.3-5.4,10.9c-2.8,6.7-4.7,9.1-9.1,15.1c-4.2,5.5-9.7,8.5-14.7,13.4c-1.3,1.2,1.7,1.6,0.3,3
			c-1.7,1.7-2.7,0.1-3.5,0.5c-0.7,0.3-6.5,1.5-6.5,1.7c0.3,0.7,0.8,1.1,1.5,1.2c-1.2,3.1-7.6,0.4-9,0c-5.1-1.6-4.9-2.9-9.9-2.8
			c-7.5,0.2-13.1,2.4-20.9,1.1c-5.2-0.9-10.4-2.2-15.7-2.2c-2.9,0-5.6,0.8-8.4,1c-0.7,0.6-1.4,1.3-2.1,1.9c-1.4-0.6-2.8-1.2-4.2-1.8
			c-3.6-0.2-8.1-0.4-11.5-1c-2.7-0.5-6.8-4.7-9.8-2.5c3.1,4.9,14.5,6.1,20,7.8c6.1,1.9,11.5,3.5,17.8,3.3c11.3-0.5,20.6-3.3,19,10.1
			c0,0-0.9-4.6-2.5-3.6c-0.9,0.5-2.7,6.2-2.5,6.8c1.7-1.5,0.9-1.1,1.7,0.2c0.8-0.6,1.3-1.4,1.4-2.5c4.5,7.2-13.5,5.1,1,11.8
			c3,1.4,6.9,0.1,9.2,3.4c1.7,2.4-1,3.2-0.1,6.5c0.9,0,1.5-0.4,2-1.2c0.7,3.5-8.2,10.2-8.6,14.8c-3.1,0.7-1.9-5.4-5,2.1
			c2.2-0.9-3.3,11.5-7.4,13.7c10.7,5.1,27.3-2.6,38-4.5c9-1.6,14.4,3.7,22.7-0.7c5.7-3.1,8.4-6.5,15.5-2.6
			c4.2,2.2,9.7,14.5,7.7,21.1c6.1-2.2,4.5,9.5,12.4,3.9c0.4,1,0.5,2.1,0.4,3.2c4.2,1.1,3.1-4.7,7.9,1.1c2.3-2.8,5.1-2.9,6.8,0.6
			c1.8,3.7-4.4,12.2-5.9,14.7c-6.2,10.1-12.5,21.7-20,30.9c-8.4,10.2-17.8,19.9-26.4,29.9c-8.6,10-14.6,21.3-21.6,32.5
			c7.5,0.1,15-0.1,22.5-0.6c8.6-0.6,11-4.1,15.7-10.8c5.1-7.3,10.2-17.9,18-22.9c2.9-1.9,8.1-1.5,10.6-3.6c3.2-2.6-0.7-1.3,1-5.6
			c4.5-11.2,11.7-21.6,18.4-31.5c3.5-5.2,12.7-22,21.1-18.2c6.1,2.8,2.6,13.8,1.2,18.3c-3.7,11.5-9.3,22.8-15.9,33
			c-6.3,10-10.1,20.9-15.3,31.7c102.6-29.6,178.8-121.8,188.4-228.1c8.5-93.9-35.2-186.9-112.9-240.3C366.9,16.1,314.8,0,262.1,0z
			 M169.1,192.1C172.9,192.9,169,192.7,169.1,192.1C169.7,192.2,169.1,192.3,169.1,192.1z M169.1,199.6
			C170.3,200,168.4,199.4,169.1,199.6C169.2,199.7,169,199.6,169.1,199.6z M164.8,194c0.2-2.1,1.4-2.7,3.6-1.7
			c0.2,2.4-0.5,3.5-2.2,3.5c0.2,0.4,2.7,3.3,0.5,3.4C164.8,199.2,164.2,195.2,164.8,194z M164.7,81.9
			C164.6,81.9,164.6,81.9,164.7,81.9L164.7,81.9z M237.6,39.9c1.2-0.2,1.5-0.1,2.1,1C238.7,41,238.1,40.6,237.6,39.9z M273,58
			C274.7,58.6,272.6,57.8,273,58C273.2,58,273,58,273,58z M274.8,66.1c-8.1-7.5-18-17.8-25.1-21.7c-0.4,4.2-7.5-1.8-6.6-2.7
			c1-1,1.9,0.7,2.4-0.2c-2.2-0.4-3-1.2-2.3-2.3c5.5,1.7,15.8,6.9,19.8,10.9c-3.4-0.3,4.1,2.7,4.3,4.7c-4.1-2.3-8.2-4.7-12.3-7
			c1.4,3.6,9.7,7.5,12.6,9.7C270.5,59.7,276.4,67.6,274.8,66.1C273.7,65.1,275.2,66.5,274.8,66.1z M278.5,69.5
			C277.6,68.4,279.5,68.5,278.5,69.5C278.4,69.3,278.7,69.3,278.5,69.5z M282.8,74.5c-1-0.5-1.3-1.2-1.4-2.3
			C282.3,72.8,283,73.3,282.8,74.5z M287.7,91.8C284.9,90.3,288.3,92.1,287.7,91.8C287.4,91.6,287.7,91.8,287.7,91.8z M290.5,106.3
			C287.8,107.5,291.1,103.1,290.5,106.3C290.3,106.4,290.6,105.8,290.5,106.3z M267.5,193.4c-0.6,0.4-5.9,4-6.8,2.8
			c-0.4-0.5,6-6.7,7.4-5C268.4,192.1,268.2,192.8,267.5,193.4C267.4,193.5,268.1,193,267.5,193.4z M271.3,191.4
			C266.7,192.4,271.8,189.5,271.3,191.4C270.8,191.5,271.3,191.2,271.3,191.4z M278.7,208.6c-0.5,4.5-2.8-3.1-2.8-4.2
			c0-3.7,3.9-1.4,4-1.6C278.9,204.6,278.5,206.5,278.7,208.6z M280.5,210c-1.1,0.3-1-2.7-0.2-3.1C280.7,208,280.8,209,280.5,210
			C279.9,210.2,280.7,208.3,280.5,210z M280.2,205.4C280.8,205.2,280.5,205.9,280.2,205.4C280.3,205.4,280.2,205.5,280.2,205.4z
			 M279.9,202.8c0.9-0.9,1.1-1,2.6-0.2C281.6,204,280.7,204,279.9,202.8z M190.4,326.3C190.2,325.9,190.8,326.1,190.4,326.3
			C190.3,326.3,190.4,326.3,190.4,326.3z M231,345.3C229.8,344.5,231.5,343.6,231,345.3C230.9,345.2,231.1,345.1,231,345.3z
			 M233.2,334.4C232.7,333.9,233.7,333.8,233.2,334.4C233.1,334.3,233.3,334.3,233.2,334.4z M237.7,336.1c-1.1-0.7-1.3-1.8-1.3-3
			C236.8,334.1,238.1,334.7,237.7,336.1z M238,340.3C237.5,339.8,238.5,339.6,238,340.3C237.9,340.2,238,340.2,238,340.3z
			 M269.1,327.6c2.4-0.1,2.5,0.5,0.2,1.9C269.2,328.8,269.1,328.2,269.1,327.6C269.6,327.1,268.5,328,269.1,327.6z M267.2,326.9
			C267.8,327.9,266.3,328.3,267.2,326.9C267.4,327.2,267,327.2,267.2,326.9z M269.2,353.9C268.7,354.4,270.1,353,269.2,353.9
			C269.2,353.9,269.3,353.8,269.2,353.9z M274,342.9c-2.9,3.1-1.9,7.9-7.1,7c-1.2-0.2-4.6-4-5.2-5.4c-2.4-5,1.9-17.7,5.3-10.8
			c1.4-0.2,0.3-1.8,1.6-2.1C271.5,331.1,276.6,340.1,274,342.9C273.5,343.4,274.4,342.3,274,342.9z M310.9,274.3
			C309,277.1,312,272.8,310.9,274.3C310.6,274.8,310.9,274.3,310.9,274.3z"/>
	</g>
</g>
</svg>
